<svg width="24" height="24" viewBox="0 0 24 24" fill="none" xmlns="http://www.w3.org/2000/svg">
<g id="gift-box 1" clip-path="url(#clip0_12_5152)">
<path id="Vector" d="M16.5348 13.6629H4.16151L14.8762 6.85039C14.9074 6.83057 14.9343 6.80481 14.9556 6.77457C14.9768 6.74433 14.9918 6.7102 14.9999 6.67414C15.0079 6.63808 15.0087 6.60079 15.0023 6.56441C14.996 6.52802 14.9825 6.49325 14.9626 6.46208L13.9011 4.79248C13.659 4.41263 13.2761 4.14432 12.8364 4.04642C12.3967 3.94853 11.9362 4.02904 11.5558 4.2703L10.048 5.22894L10.1675 4.65749C10.2145 4.45088 10.2203 4.23701 10.1845 4.02816C10.1487 3.81931 10.0719 3.6196 9.95869 3.44049C9.84544 3.26139 9.69792 3.10644 9.5246 2.98452C9.35128 2.86261 9.15559 2.77614 8.94875 2.73009C8.74191 2.68404 8.52801 2.67931 8.31935 2.71618C8.11068 2.75305 7.91135 2.83079 7.73281 2.94493C7.55428 3.05906 7.40006 3.20735 7.27901 3.38128C7.15796 3.5552 7.07247 3.75133 7.02745 3.95839L6.24417 7.47655L3.62147 6.89277C3.23034 6.8056 2.82076 6.86756 2.47292 7.06652C2.12508 7.26548 1.86403 7.58711 1.74088 7.96843C1.61774 8.34976 1.64136 8.76333 1.80712 9.12815C1.97289 9.49298 2.26886 9.7828 2.63709 9.94086L1.02187 10.9679C0.642027 11.21 0.373726 11.5929 0.27583 12.0325C0.177935 12.4722 0.25844 12.9328 0.499684 13.3131L1.56126 14.9828C1.58108 15.014 1.60684 15.0409 1.63707 15.0621C1.66731 15.0834 1.70143 15.0984 1.73748 15.1064C1.77354 15.1145 1.81082 15.1153 1.8472 15.1089C1.88359 15.1026 1.91836 15.0891 1.94953 15.0693L2.93765 14.4411V21.5609C2.93816 22.0113 3.11733 22.4432 3.43585 22.7617C3.75438 23.0802 4.18624 23.2593 4.63668 23.2598H15.1172C15.5676 23.2593 15.9994 23.0802 16.318 22.7617C16.6365 22.4432 16.8156 22.0113 16.8161 21.5609V13.9442C16.8161 13.9072 16.8088 13.8707 16.7947 13.8365C16.7806 13.8024 16.7598 13.7714 16.7337 13.7453C16.7076 13.7191 16.6766 13.6984 16.6424 13.6843C16.6083 13.6702 16.5717 13.6629 16.5348 13.6629ZM11.8576 4.74505C12.039 4.62904 12.2498 4.56733 12.4651 4.5672C12.549 4.56725 12.6325 4.57647 12.7143 4.59472C12.8601 4.62679 12.9982 4.68745 13.1204 4.77321C13.2426 4.85896 13.3466 4.9681 13.4264 5.09431L14.337 6.52658L9.90736 9.34311L8.38692 6.95183L11.8576 4.74505ZM7.5765 4.08069C7.63726 3.81001 7.80306 3.57456 8.03742 3.42613C8.27178 3.2777 8.55551 3.22844 8.82618 3.2892C9.09686 3.34997 9.33231 3.51576 9.48074 3.75013C9.62918 3.98449 9.67843 4.26822 9.61767 4.53889L9.38676 5.64345L6.87112 7.24888L7.5765 4.08069ZM7.91212 7.25366L9.43256 9.64494L6.86568 11.2769L5.34529 8.88566L7.91212 7.25366ZM2.38926 9.02403C2.27825 8.84946 2.22151 8.64589 2.2262 8.43906C2.23089 8.23224 2.29681 8.03145 2.41562 7.86209C2.53443 7.69273 2.70079 7.5624 2.89367 7.48759C3.08655 7.41279 3.29728 7.39685 3.49922 7.44181L5.77195 7.94778L3.24904 9.5293L3.04457 9.48374C2.91038 9.45424 2.78336 9.39842 2.67088 9.31952C2.55839 9.24061 2.46267 9.14018 2.38926 9.02403ZM1.88512 14.4437L0.974481 13.0114C0.813109 12.7569 0.75925 12.4489 0.824718 12.1548C0.890186 11.8607 1.06964 11.6046 1.3237 11.4426L4.87059 9.18748L6.39098 11.5788L1.88512 14.4437ZM7.33917 22.6973H4.63668C4.33539 22.697 4.04653 22.5771 3.83348 22.3641C3.62044 22.151 3.50059 21.8622 3.50025 21.5609V14.2254H7.33931L7.33917 22.6973ZM10.914 22.6973H7.90167V14.2254H10.914V22.6973ZM16.2535 21.5609C16.2532 21.8622 16.1333 22.151 15.9203 22.3641C15.7073 22.5771 15.4185 22.697 15.1172 22.6973H11.4765V14.2254H16.2535V21.5609Z" fill="black"/>
<path id="Vector_2" d="M19.6797 11.108L19.8142 10.3235C19.823 10.2718 19.8173 10.2187 19.7975 10.1701C19.7777 10.1215 19.7448 10.0794 19.7023 10.0486C19.6599 10.0177 19.6097 9.99937 19.5574 9.99557C19.505 9.99177 19.4527 10.0027 19.4062 10.0271L18.7018 10.3974L17.9973 10.0271C17.9509 10.0026 17.8985 9.9917 17.8462 9.99548C17.7938 9.99926 17.7436 10.0176 17.7011 10.0485C17.6587 10.0793 17.6257 10.1214 17.6059 10.17C17.5861 10.2186 17.5804 10.2718 17.5892 10.3235L17.7238 11.108L17.1538 11.6635C17.1163 11.7001 17.0897 11.7465 17.0771 11.7975C17.0645 11.8484 17.0664 11.9019 17.0826 11.9518C17.0989 12.0017 17.1287 12.0461 17.1688 12.0799C17.209 12.1138 17.2578 12.1357 17.3097 12.1432L18.0972 12.2577L18.4494 12.9714C18.4726 13.0185 18.5086 13.0581 18.5532 13.0858C18.5977 13.1135 18.6492 13.1282 18.7017 13.1282C18.7542 13.1282 18.8056 13.1135 18.8502 13.0858C18.8947 13.0581 18.9307 13.0185 18.9539 12.9714L19.3061 12.2577L20.0936 12.1432C20.1455 12.1357 20.1943 12.1138 20.2344 12.0799C20.2746 12.0461 20.3044 12.0017 20.3206 11.9518C20.3369 11.9019 20.3388 11.8484 20.3262 11.7975C20.3136 11.7465 20.287 11.7001 20.2494 11.6635L19.6797 11.108ZM19.0789 11.7221C19.0337 11.7286 18.9909 11.746 18.954 11.7728C18.9171 11.7996 18.8873 11.835 18.8671 11.8759L18.7017 12.2112L18.5362 11.8759C18.516 11.835 18.4862 11.7997 18.4493 11.7729C18.4124 11.7461 18.3696 11.7286 18.3245 11.7221L17.9544 11.6683L18.2222 11.4073C18.2548 11.3755 18.2793 11.3362 18.2934 11.2929C18.3075 11.2495 18.3108 11.2033 18.3031 11.1584L18.2398 10.7899L18.5708 10.9638C18.6111 10.9851 18.6561 10.9962 18.7017 10.9962C18.7473 10.9962 18.7922 10.9851 18.8325 10.9638L19.1634 10.7899L19.1002 11.1584C19.0925 11.2033 19.0959 11.2495 19.1099 11.2929C19.124 11.3362 19.1484 11.3755 19.1811 11.4073L19.4488 11.6683L19.0789 11.7221Z" fill="black"/>
<path id="Vector_3" d="M22.9144 7.23281L22.141 7.04485L21.8574 6.30127C21.8387 6.25222 21.8066 6.20938 21.7648 6.1776C21.7231 6.14582 21.6732 6.12636 21.621 6.12142C21.5687 6.11649 21.5161 6.12627 21.4692 6.14967C21.4222 6.17307 21.3827 6.20915 21.3551 6.25383L20.9374 6.93131L20.1426 6.9713C20.0902 6.97394 20.0395 6.99118 19.9964 7.02109C19.9533 7.051 19.9194 7.09237 19.8986 7.14053C19.8777 7.1887 19.8708 7.24173 19.8785 7.29363C19.8863 7.34553 19.9084 7.39424 19.9423 7.43424L20.4575 8.04085L20.25 8.80913C20.2363 8.85979 20.2371 8.91327 20.2522 8.96353C20.2673 9.01378 20.2962 9.05881 20.3356 9.0935C20.3749 9.1282 20.4232 9.1512 20.475 9.15988C20.5267 9.16856 20.5799 9.16259 20.6284 9.14264L21.3644 8.84011L22.0313 9.27497C22.0752 9.30364 22.1263 9.31944 22.1788 9.32059C22.2312 9.32174 22.283 9.30819 22.3281 9.28147C22.3733 9.25475 22.4101 9.21593 22.4343 9.16939C22.4586 9.12286 22.4693 9.07047 22.4654 9.01814L22.4051 8.22455L23.0245 7.725C23.0653 7.69206 23.0961 7.64836 23.1134 7.59883C23.1307 7.5493 23.1338 7.49591 23.1224 7.44471C23.1109 7.39351 23.0854 7.34653 23.0486 7.30909C23.0119 7.27164 22.9654 7.24522 22.9144 7.23281ZM21.9368 7.87969C21.9013 7.90831 21.8733 7.94514 21.8552 7.98699C21.8371 8.02884 21.8295 8.07446 21.8329 8.11992L21.8611 8.49272L21.5479 8.28839C21.5097 8.26348 21.466 8.24823 21.4206 8.24395C21.3752 8.23967 21.3295 8.2465 21.2873 8.26383L20.9416 8.40596L21.0391 8.04502C21.0509 8.001 21.052 7.95475 21.042 7.91025C21.0321 7.86576 21.0114 7.82435 20.9819 7.7896L20.7399 7.50464L21.1133 7.48589C21.1588 7.48362 21.2032 7.4703 21.2424 7.4471C21.2817 7.42389 21.3147 7.39148 21.3386 7.35267L21.5348 7.03444L21.668 7.38375C21.6843 7.42635 21.7106 7.46435 21.7449 7.49449C21.7791 7.52463 21.8201 7.546 21.8644 7.55677L22.2277 7.64508L21.9368 7.87969Z" fill="black"/>
<path id="Vector_4" d="M18.7781 2.66078L18.5705 3.42906C18.5568 3.47973 18.5576 3.53322 18.5727 3.58348C18.5878 3.63374 18.6167 3.67878 18.656 3.71348C18.6954 3.74819 18.7437 3.77118 18.7955 3.77987C18.8472 3.78855 18.9004 3.78258 18.9489 3.76263L19.6849 3.46005L20.3515 3.895C20.3954 3.92368 20.4465 3.93948 20.499 3.94063C20.5515 3.94177 20.6032 3.92822 20.6484 3.90149C20.6935 3.87477 20.7303 3.83594 20.7546 3.7894C20.7788 3.74285 20.7896 3.69046 20.7856 3.63813L20.7254 2.84453L21.3449 2.34494C21.3857 2.312 21.4165 2.2683 21.4338 2.21876C21.4511 2.16923 21.4542 2.11585 21.4428 2.06465C21.4313 2.01345 21.4058 1.96647 21.369 1.92902C21.3323 1.89158 21.2858 1.86516 21.2348 1.85275L20.4614 1.66483L20.1778 0.921205C20.1591 0.872164 20.127 0.829336 20.0852 0.797563C20.0435 0.76579 19.9936 0.746341 19.9414 0.741415C19.8891 0.736489 19.8365 0.746283 19.7896 0.769689C19.7426 0.793095 19.7031 0.82918 19.6756 0.873861L19.2579 1.5513L18.463 1.59124C18.4106 1.59387 18.3599 1.61111 18.3168 1.64101C18.2737 1.67091 18.2398 1.71229 18.219 1.76045C18.1981 1.80861 18.1912 1.86165 18.1989 1.91356C18.2066 1.96546 18.2287 2.01417 18.2627 2.05417L18.7781 2.66078ZM19.434 2.1056C19.4795 2.10331 19.5238 2.08998 19.563 2.06677C19.6023 2.04355 19.6353 2.01114 19.6592 1.97233L19.8555 1.6541L19.9887 2.00341C20.0049 2.04601 20.0313 2.08402 20.0655 2.11417C20.0997 2.14432 20.1407 2.1657 20.185 2.17647L20.5483 2.26474L20.2573 2.49939C20.2218 2.52801 20.1938 2.56483 20.1757 2.60668C20.1576 2.64853 20.1499 2.69416 20.1534 2.73963L20.1815 3.11247L19.8683 2.90814C19.8302 2.88323 19.7865 2.86798 19.7411 2.8637C19.6957 2.85942 19.6499 2.86625 19.6078 2.88358L19.262 3.0257L19.3595 2.66477C19.3714 2.62074 19.3724 2.57448 19.3625 2.52998C19.3525 2.48547 19.3319 2.44406 19.3024 2.4093L19.0604 2.1243L19.434 2.1056Z" fill="black"/>
<path id="Vector_5" d="M13.6756 11.1485C13.0406 11.5481 12.7304 12.0323 12.7175 12.0528C12.6776 12.1158 12.6643 12.1921 12.6806 12.2649C12.6969 12.3376 12.7414 12.401 12.8044 12.4409C12.8674 12.4809 12.9437 12.4942 13.0165 12.4779C13.0893 12.4616 13.1526 12.417 13.1925 12.3541C13.2347 12.2884 14.2523 10.7502 16.4672 11.2981C16.5394 11.3152 16.6153 11.3032 16.6786 11.2646C16.742 11.226 16.7875 11.164 16.8053 11.092C16.8231 11.0201 16.8118 10.944 16.7738 10.8803C16.7358 10.8167 16.6742 10.7706 16.6024 10.7521C15.2396 10.4149 14.2586 10.7815 13.6756 11.1485Z" fill="black"/>
<path id="Vector_6" d="M19.0125 8.17001C19.0814 8.1986 19.1588 8.19866 19.2278 8.17016C19.2967 8.14166 19.3515 8.08694 19.3801 8.01804C19.4087 7.94914 19.4087 7.87171 19.3802 7.80277C19.3517 7.73383 19.297 7.67904 19.2281 7.65045C17.2259 6.81949 15.7707 7.44176 14.9025 8.1102C14.3265 8.55812 13.8498 9.1207 13.5024 9.76235C13.486 9.79543 13.4763 9.83143 13.4737 9.86828C13.4712 9.90512 13.476 9.94211 13.4878 9.97711C13.4995 10.0121 13.5181 10.0445 13.5424 10.0723C13.5666 10.1001 13.5962 10.1229 13.6293 10.1393C13.6623 10.1558 13.6983 10.1655 13.7352 10.168C13.772 10.1706 13.809 10.1658 13.844 10.154C13.879 10.1422 13.9114 10.1237 13.9392 10.0994C13.967 10.0751 13.9898 10.0456 14.0062 10.0125C14.3162 9.44786 14.7379 8.95224 15.2456 8.55588C16.3372 7.71565 17.6046 7.58571 19.0125 8.17001Z" fill="black"/>
<path id="Vector_7" d="M15.8521 6.08644C15.8291 6.15741 15.8353 6.23459 15.8693 6.301C15.9032 6.36741 15.9622 6.41762 16.0331 6.44058C16.4203 6.55467 16.8219 6.61269 17.2255 6.61289C17.6959 6.61289 18.2391 6.528 18.7262 6.23925C19.3637 5.86153 19.7725 5.21799 19.9419 4.32675C19.9489 4.29041 19.9487 4.25303 19.9413 4.21677C19.9339 4.1805 19.9193 4.14606 19.8986 4.11542C19.8778 4.08478 19.8512 4.05854 19.8202 4.03821C19.7893 4.01788 19.7546 4.00386 19.7183 3.99695C19.6819 3.99004 19.6445 3.99038 19.6083 3.99794C19.572 4.00551 19.5377 4.02015 19.5071 4.04104C19.4765 4.06192 19.4504 4.08864 19.4302 4.11965C19.41 4.15066 19.3961 4.18536 19.3893 4.22175C19.2516 4.94649 18.9328 5.46206 18.4419 5.7541C17.5081 6.30971 16.2262 5.91192 16.2059 5.90546C16.135 5.88259 16.0579 5.8888 15.9916 5.92274C15.9252 5.95667 15.8751 6.01555 15.8521 6.08644Z" fill="black"/>
<path id="Vector_8" d="M12.1344 13.3534C12.2346 13.3534 12.3325 13.3237 12.4158 13.2681C12.4991 13.2124 12.564 13.1333 12.6024 13.0407C12.6407 12.9482 12.6508 12.8463 12.6312 12.7481C12.6117 12.6498 12.5635 12.5596 12.4926 12.4887C12.4218 12.4179 12.3315 12.3696 12.2333 12.3501C12.135 12.3305 12.0332 12.3405 11.9406 12.3789C11.848 12.4172 11.7689 12.4821 11.7133 12.5654C11.6576 12.6487 11.6279 12.7467 11.6279 12.8469C11.6281 12.9811 11.6815 13.1099 11.7764 13.2048C11.8714 13.2998 12.0001 13.3532 12.1344 13.3534ZM12.1344 12.7909C12.1455 12.7909 12.1563 12.7942 12.1655 12.8003C12.1747 12.8065 12.1819 12.8152 12.1862 12.8255C12.1904 12.8357 12.1915 12.847 12.1894 12.8578C12.1872 12.8687 12.1819 12.8787 12.174 12.8865C12.1662 12.8944 12.1562 12.8997 12.1453 12.9019C12.1345 12.904 12.1232 12.9029 12.113 12.8987C12.1027 12.8944 12.094 12.8872 12.0878 12.878C12.0817 12.8688 12.0784 12.8579 12.0784 12.8469C12.0785 12.832 12.0844 12.8178 12.0949 12.8074C12.1054 12.7969 12.1196 12.791 12.1344 12.7909Z" fill="black"/>
<path id="Vector_9" d="M16.1197 4.16589C16.2199 4.16589 16.3178 4.13619 16.4011 4.08053C16.4844 4.02487 16.5493 3.94576 16.5877 3.8532C16.626 3.76065 16.636 3.6588 16.6165 3.56054C16.5969 3.46229 16.5487 3.37203 16.4779 3.30119C16.407 3.23035 16.3168 3.18211 16.2185 3.16257C16.1203 3.14302 16.0184 3.15305 15.9258 3.19139C15.8333 3.22973 15.7542 3.29465 15.6985 3.37795C15.6429 3.46125 15.6132 3.55918 15.6132 3.65936C15.6133 3.79366 15.6667 3.92241 15.7617 4.01737C15.8566 4.11233 15.9854 4.16575 16.1197 4.16589ZM16.1197 3.60339C16.1308 3.60339 16.1416 3.60668 16.1508 3.61284C16.16 3.619 16.1672 3.62775 16.1714 3.63798C16.1757 3.64822 16.1768 3.65949 16.1746 3.67036C16.1725 3.68122 16.1671 3.6912 16.1593 3.69904C16.1514 3.70687 16.1415 3.7122 16.1306 3.71436C16.1197 3.71651 16.1085 3.7154 16.0982 3.71115C16.088 3.7069 16.0792 3.69971 16.0731 3.6905C16.0669 3.68128 16.0637 3.67044 16.0637 3.65936C16.0637 3.64453 16.0697 3.63033 16.0802 3.61985C16.0907 3.60937 16.1049 3.60346 16.1197 3.60339Z" fill="black"/>
<path id="Vector_10" d="M23.2591 3.77966C23.1589 3.77966 23.061 3.80937 22.9777 3.86503C22.8944 3.92069 22.8295 3.9998 22.7911 4.09236C22.7528 4.18492 22.7428 4.28677 22.7623 4.38503C22.7818 4.48329 22.8301 4.57354 22.9009 4.64438C22.9718 4.71522 23.062 4.76346 23.1603 4.783C23.2586 4.80254 23.3604 4.7925 23.453 4.75415C23.5455 4.71581 23.6246 4.65088 23.6803 4.56757C23.7359 4.48427 23.7656 4.38633 23.7656 4.28615C23.7655 4.15186 23.7121 4.02311 23.6171 3.92816C23.5221 3.8332 23.3934 3.7798 23.2591 3.77966ZM23.2591 4.34216C23.248 4.34216 23.2372 4.33888 23.228 4.33272C23.2188 4.32657 23.2116 4.31782 23.2073 4.30758C23.2031 4.29735 23.202 4.28609 23.2042 4.27522C23.2063 4.26435 23.2117 4.25437 23.2195 4.24654C23.2273 4.2387 23.2373 4.23337 23.2482 4.23121C23.259 4.22905 23.2703 4.23016 23.2805 4.2344C23.2908 4.23864 23.2995 4.24581 23.3057 4.25503C23.3118 4.26424 23.3151 4.27507 23.3151 4.28615C23.315 4.30098 23.3091 4.3152 23.2986 4.32569C23.2881 4.33618 23.2739 4.3421 23.2591 4.34216Z" fill="black"/>
<path id="Vector_11" d="M11.9271 10.5013C11.9271 10.4011 11.8973 10.3031 11.8417 10.2198C11.786 10.1365 11.7069 10.0716 11.6143 10.0333C11.5217 9.99495 11.4199 9.98494 11.3216 10.0045C11.2233 10.0241 11.1331 10.0723 11.0623 10.1432C10.9914 10.2141 10.9432 10.3044 10.9237 10.4026C10.9042 10.5009 10.9143 10.6028 10.9526 10.6953C10.991 10.7879 11.056 10.867 11.1393 10.9226C11.2227 10.9782 11.3206 11.0079 11.4208 11.0078C11.5551 11.0076 11.6838 10.9542 11.7787 10.8592C11.8736 10.7642 11.9269 10.6355 11.9271 10.5013ZM11.4208 10.5575C11.4097 10.5575 11.3989 10.5543 11.3897 10.5481C11.3805 10.542 11.3733 10.5333 11.3691 10.523C11.3648 10.5128 11.3637 10.5016 11.3658 10.4907C11.3679 10.4798 11.3733 10.4699 11.3811 10.462C11.3889 10.4542 11.3988 10.4488 11.4097 10.4466C11.4205 10.4444 11.4318 10.4455 11.442 10.4497C11.4523 10.4539 11.461 10.461 11.4672 10.4702C11.4734 10.4794 11.4767 10.4902 11.4768 10.5013C11.4767 10.5162 11.4708 10.5304 11.4602 10.5409C11.4497 10.5514 11.4354 10.5573 11.4206 10.5573L11.4208 10.5575Z" fill="black"/>
<path id="Vector_12" d="M22.425 10.8193C22.3248 10.8193 22.2269 10.849 22.1436 10.9047C22.0603 10.9604 21.9954 11.0395 21.957 11.132C21.9187 11.2246 21.9086 11.3264 21.9282 11.4247C21.9477 11.5229 21.996 11.6132 22.0668 11.684C22.1377 11.7549 22.2279 11.8031 22.3262 11.8227C22.4244 11.8422 22.5263 11.8322 22.6188 11.7938C22.7114 11.7555 22.7905 11.6906 22.8462 11.6073C22.9018 11.524 22.9315 11.426 22.9315 11.3259C22.9314 11.1916 22.878 11.0628 22.783 10.9679C22.688 10.8729 22.5593 10.8195 22.425 10.8193ZM22.425 11.3818C22.4139 11.3818 22.4031 11.3785 22.3939 11.3724C22.3847 11.3662 22.3775 11.3575 22.3733 11.3473C22.3691 11.337 22.368 11.3258 22.3701 11.3149C22.3723 11.3041 22.3776 11.2941 22.3855 11.2863C22.3933 11.2785 22.4033 11.2731 22.4141 11.271C22.425 11.2688 22.4362 11.2699 22.4465 11.2742C22.4567 11.2784 22.4654 11.2856 22.4716 11.2948C22.4777 11.304 22.481 11.3148 22.481 11.3259C22.4809 11.3407 22.475 11.3549 22.4645 11.3654C22.454 11.3759 22.4398 11.3818 22.425 11.3818Z" fill="black"/>
</g>
<defs>
<clipPath id="clip0_12_5152">
<rect width="24" height="24" fill="white"/>
</clipPath>
</defs>
</svg>
